<svg id="그룹_3604" data-name="그룹 3604" xmlns="http://www.w3.org/2000/svg" xmlns:xlink="http://www.w3.org/1999/xlink" width="60.5" height="60" viewBox="0 0 60.5 60">
  <defs>
    <clipPath id="clip-path">
      <rect id="사각형_384" data-name="사각형 384" width="60.5" height="60" fill="none"/>
    </clipPath>
  </defs>
  <g id="그룹_3557" data-name="그룹 3557">
    <g id="그룹_3556" data-name="그룹 3556" clip-path="url(#clip-path)">
      <path id="패스_458" data-name="패스 458" d="M7.939,25.829H1.154V18.636H34.693v7.193H16.384" fill="none" stroke="#090406" stroke-linecap="round" stroke-linejoin="round" stroke-width="1.5"/>
    </g>
  </g>
  <path id="패스_459" data-name="패스 459" d="M16.028,26.081h17.1L31.37,42.3" fill="none" stroke="#090406" stroke-linecap="round" stroke-linejoin="round" stroke-width="1.5"/>
  <g id="그룹_3559" data-name="그룹 3559">
    <g id="그룹_3558" data-name="그룹 3558" clip-path="url(#clip-path)">
      <path id="패스_460" data-name="패스 460" d="M4.31,35.339,2.72,26.081H7.631" fill="none" stroke="#090406" stroke-linecap="round" stroke-linejoin="round" stroke-width="1.5"/>
    </g>
  </g>
  <path id="패스_461" data-name="패스 461" d="M19.792,50.5H6.914L5.407,41.724" fill="none" stroke="#090406" stroke-linecap="round" stroke-linejoin="round" stroke-width="1.5"/>
  <g id="그룹_3561" data-name="그룹 3561">
    <g id="그룹_3560" data-name="그룹 3560" clip-path="url(#clip-path)">
      <path id="패스_462" data-name="패스 462" d="M14.495,29.125a3.18,3.18,0,0,1-.337,1.78c-3.4,6.783-2.684,7.235-9.467,10.64a2.661,2.661,0,0,1-3.779-1.11,2.842,2.842,0,0,1,1.482-3.466c5.8-2.91,4.279-2.563,7.189-8.361" fill="none" stroke="#090406" stroke-linecap="round" stroke-linejoin="round" stroke-width="1.5"/>
      <path id="패스_463" data-name="패스 463" d="M8.437,26.081a3.8,3.8,0,1,1,3.8,3.8A3.795,3.795,0,0,1,8.437,26.081Z" fill="none" stroke="#090406" stroke-linecap="round" stroke-linejoin="round" stroke-width="1.5"/>
      <path id="패스_464" data-name="패스 464" d="M53.292,31.432l3.343-9.868L52.16,20.121,48.6,29.877a3.456,3.456,0,0,0-3.97,2.81l-1.314,7a3.365,3.365,0,0,0,2.6,4.519c1.593.47,3.561.645,4.94-1.651l3.749-6.606C55.474,33.566,54.571,32.64,53.292,31.432Z" fill="none" stroke="#090406" stroke-linecap="round" stroke-linejoin="round" stroke-width="1.5"/>
      <path id="패스_465" data-name="패스 465" d="M51.221,42.775A37.166,37.166,0,0,1,59.75,50.5H23.817S31.4,38.583,42.958,39.767" fill="none" stroke="#090406" stroke-linecap="round" stroke-linejoin="round" stroke-width="1.5"/>
      <path id="패스_466" data-name="패스 466" d="M2.721,18.636s9.874-3.427,15.2-8.86c0,0,10.187-2.706,15.2,8.86Z" fill="none" stroke="#090406" stroke-linecap="round" stroke-linejoin="round" stroke-width="1.5"/>
    </g>
  </g>
</svg>
