<svg xmlns="http://www.w3.org/2000/svg" width="58" height="40" viewBox="0 0 58 40">
  <g id="그룹_1409" data-name="그룹 1409" transform="translate(-665 -527)">
    <g id="그룹_1221" data-name="그룹 1221" transform="translate(-63 -20)">
      <g id="사각형_160" data-name="사각형 160" transform="translate(729 547)" fill="#fff" stroke="#000" stroke-width="1.4">
        <rect width="56" height="40" rx="1" stroke="none"/>
        <rect x="0.7" y="0.7" width="54.6" height="38.6" rx="0.3" fill="none"/>
      </g>
      <g id="다각형_2" data-name="다각형 2" transform="translate(786 573) rotate(180)" fill="#fff">
        <path d="M 55.38658905029297 25.29999732971191 L 2.613409996032715 25.29999732971191 C 2.433809995651245 25.29999732971191 2.360769987106323 25.17920684814453 2.3332200050354 25.10720825195312 C 2.305670022964478 25.03520774841309 2.279419898986816 24.89651679992676 2.413150072097778 24.7766284942627 L 28.79973030090332 1.119687795639038 C 28.85485076904297 1.070277690887451 28.92597007751465 1.043057799339294 29 1.043057799339294 C 29.07402038574219 1.043057799339294 29.14513969421387 1.070277690887451 29.20026016235352 1.119687795639038 L 55.58684921264648 24.7766284942627 C 55.7205810546875 24.89651679992676 55.69432830810547 25.03520774841309 55.66677856445312 25.10720825195312 C 55.63922882080078 25.17920684814453 55.56618881225586 25.29999732971191 55.38658905029297 25.29999732971191 Z" stroke="none"/>
        <path d="M 28.9999942779541 1.880279541015625 L 3.658767700195312 24.59999847412109 L 54.34122085571289 24.59999847412109 L 28.9999942779541 1.880279541015625 M 28.9999942779541 0.3430595397949219 C 29.23880004882812 0.3430595397949219 29.47760581970215 0.4282035827636719 29.66753959655762 0.5984878540039062 L 56.05413055419922 24.25542831420898 C 56.73722076416016 24.86784744262695 56.30400848388672 25.99999809265137 55.38658905029297 25.99999809265137 L 2.613410949707031 25.99999809265137 C 1.695991516113281 25.99999809265137 1.262779235839844 24.86784744262695 1.94586181640625 24.25542831420898 L 28.33245086669922 0.5984878540039062 C 28.52238464355469 0.4282035827636719 28.76119041442871 0.3430595397949219 28.9999942779541 0.3430595397949219 Z" stroke="none" fill="#000"/>
      </g>
      <line id="선_58" data-name="선 58" x1="8" transform="translate(771.5 580.5)" fill="none" stroke="#000" stroke-width="1.4"/>
    </g>
  </g>
</svg>
