<svg id="icon_hide_18px" xmlns="http://www.w3.org/2000/svg" width="18" height="18" viewBox="0 0 18 18">
  <rect id="사각형_175" data-name="사각형 175" width="18" height="18" fill="none" opacity="0"/>
  <g id="Icon_feather-eye" data-name="Icon feather-eye" transform="translate(0 3)">
    <g id="패스_186" data-name="패스 186" transform="translate(-1.5 -6)" fill="none" stroke-linecap="round" stroke-linejoin="round">
      <path d="M19.5,12s-3.273-6-9-6-9,6-9,6,3.273,6,9,6S19.5,12,19.5,12Z" stroke="none"/>
      <path d="M 10.5 7.499998092651367 C 6.842584609985352 7.499998092651367 4.276067733764648 10.56886291503906 3.27830696105957 11.99983310699463 C 4.277580261230469 13.43291854858398 6.843743324279785 16.5 10.5 16.5 C 14.15741539001465 16.5 16.72393226623535 13.4311351776123 17.72169303894043 12.00016498565674 C 16.72241973876953 10.56707954406738 14.15625667572021 7.499998092651367 10.5 7.499998092651367 M 10.5 5.999998092651367 C 16.22727012634277 5.999998092651367 19.5 11.99999904632568 19.5 11.99999904632568 C 19.5 11.99999904632568 16.22727012634277 18 10.5 18 C 4.772729873657227 18 1.5 11.99999904632568 1.5 11.99999904632568 C 1.5 11.99999904632568 4.772729873657227 5.999998092651367 10.5 5.999998092651367 Z" stroke="none" fill="#a5a5a5"/>
    </g>
    <path id="패스_187" data-name="패스 187" d="M13.5,16.5a3,3,0,1,0,3-3A3,3,0,0,0,13.5,16.5Z" transform="translate(-7.5 -10.5)" fill="none" stroke="#a5a5a5" stroke-linecap="round" stroke-linejoin="round" stroke-width="1.5"/>
  </g>
  <line id="선_46" data-name="선 46" x2="13" y2="15" transform="translate(2.5 1.5)" fill="none" stroke="#a5a5a5" stroke-linecap="round" stroke-width="1.5"/>
</svg>
