<svg id="icon_sns_kakao_20px" xmlns="http://www.w3.org/2000/svg" xmlns:xlink="http://www.w3.org/1999/xlink" width="18.998" height="20" viewBox="0 0 18.998 20">
  <defs>
    <clipPath id="clip-path">
      <rect id="사각형_148" data-name="사각형 148" width="18.999" height="20"/>
    </clipPath>
  </defs>
  <g id="그룹_1201" data-name="그룹 1201" clip-path="url(#clip-path)">
    <path id="패스_131" data-name="패스 131" d="M5.467.829A10.259,10.259,0,0,1,11.609.217,9.672,9.672,0,0,1,16.43,2.762a8.427,8.427,0,0,1,2.489,4.807,8.6,8.6,0,0,1,.07,1.72A8.332,8.332,0,0,1,17,14.127a9.482,9.482,0,0,1-3.882,2.713,10.129,10.129,0,0,1-5.557.459c-1.185.862-2.358,1.739-3.536,2.61a.316.316,0,0,1-.287.078.282.282,0,0,1-.169-.309q0-2.053,0-4.107a10.076,10.076,0,0,1-2.3-2.268A7.206,7.206,0,0,1,.044,9.646a8.28,8.28,0,0,1,1-4.871A9.227,9.227,0,0,1,5.467.829"/>
  </g>
</svg>
