<svg id="icon_bi_19px" xmlns="http://www.w3.org/2000/svg" xmlns:xlink="http://www.w3.org/1999/xlink" width="87" height="19.004" viewBox="0 0 87 19.004">
  <defs>
    <clipPath id="clip-path">
      <rect id="사각형_1" data-name="사각형 1" width="87" height="19.004" fill="none"/>
    </clipPath>
  </defs>
  <g id="icon_bi_19px-2" data-name="icon_bi_19px" clip-path="url(#clip-path)">
    <path id="패스_1" data-name="패스 1" d="M97.919,22.028a3.619,3.619,0,0,1-3.769,3.59H88.765V13.053h4.99a3.532,3.532,0,0,1,3.68,3.482A3.09,3.09,0,0,1,96.16,19.1a3.2,3.2,0,0,1,1.759,2.926m-7.09-7.036v3.3h2.926a1.652,1.652,0,0,0,0-3.3Zm5.026,6.928a1.706,1.706,0,0,0-1.705-1.759H90.829v3.518H94.15a1.706,1.706,0,0,0,1.705-1.759" transform="translate(-65.637 -9.652)" fill="#00b3e6"/>
    <path id="패스_2" data-name="패스 2" d="M133.788,23.087h-5.349l-.88,2.531h-2.244l4.559-12.565h2.477l4.541,12.565h-2.226Zm-.682-1.939-1.992-5.672-1.992,5.672Z" transform="translate(-92.664 -9.652)" fill="#00b3e6"/>
    <path id="패스_3" data-name="패스 3" d="M178.405,21.041h-2.441v4.577H173.9V13.053h5.026a4.022,4.022,0,0,1,4.039,4.039,3.963,3.963,0,0,1-2.5,3.644l2.854,4.882h-2.261Zm-2.441-1.849h2.961a2.1,2.1,0,0,0,0-4.2h-2.961Z" transform="translate(-128.589 -9.652)" fill="#00b3e6"/>
    <path id="패스_4" data-name="패스 4" d="M219.605,21.041h-2.441v4.577H215.1V13.053h5.026a4.022,4.022,0,0,1,4.039,4.039,3.963,3.963,0,0,1-2.5,3.644l2.854,4.882h-2.261Zm-2.441-1.849h2.962a2.1,2.1,0,0,0,0-4.2h-2.962Z" transform="translate(-159.054 -9.652)" fill="#00b3e6"/>
    <path id="패스_5" data-name="패스 5" d="M311.439,23.644v1.975h-7.914V13.053h2.064v10.59Z" transform="translate(-224.439 -9.652)" fill="#00b3e6"/>
    <path id="패스_6" data-name="패스 6" d="M257.8,15.484c3.265-1.428,6.53,1.268,9.8-.16,0-.65-.011-1.305-.011-1.955-3.265,1.428-6.52-1.263-9.785.165Z" transform="translate(-190.628 -9.687)" fill="#00b3e6"/>
    <path id="패스_7" data-name="패스 7" d="M257.8,34.9c3.265-1.428,6.53,1.268,9.8-.16,0-.65-.011-1.305-.011-1.955-3.265,1.428-6.52-1.263-9.785.165Z" transform="translate(-190.628 -24.041)" fill="#00b3e6"/>
    <path id="패스_8" data-name="패스 8" d="M257.8,54.308c3.265-1.428,6.53,1.268,9.8-.16,0-.65-.011-1.305-.011-1.955-3.265,1.428-6.52-1.263-9.785.165Z" transform="translate(-190.628 -38.395)" fill="#00b3e6"/>
    <path id="패스_9" data-name="패스 9" d="M24.4,22.435c2.159-.944,4.317.838,6.476-.106,0-.43-.007-.863-.007-1.293-2.158.944-4.31-.835-6.469.109Z" transform="translate(-18.039 -15.425)" fill="#00b3e6"/>
    <path id="패스_10" data-name="패스 10" d="M24.4,35.269c2.159-.944,4.317.838,6.476-.106,0-.43-.007-.863-.007-1.293-2.158.944-4.31-.835-6.469.109Z" transform="translate(-18.039 -24.915)" fill="#00b3e6"/>
    <path id="패스_11" data-name="패스 11" d="M24.4,48.1c2.159-.944,4.317.838,6.476-.106,0-.43-.007-.863-.007-1.293-2.158.944-4.31-.835-6.469.109Z" transform="translate(-18.039 -34.404)" fill="#00b3e6"/>
    <path id="패스_12" data-name="패스 12" d="M9.5,19A9.5,9.5,0,1,1,19,9.5,9.513,9.513,0,0,1,9.5,19m0-17.641A8.139,8.139,0,1,0,17.641,9.5,8.148,8.148,0,0,0,9.5,1.363" transform="translate(0 0)" fill="#00b3e6"/>
  </g>
</svg>
