<svg id="그룹_3490" data-name="그룹 3490" xmlns="http://www.w3.org/2000/svg" xmlns:xlink="http://www.w3.org/1999/xlink" width="20.02" height="20.02" viewBox="0 0 20.02 20.02">
  <defs>
    <clipPath id="clip-path">
      <rect id="사각형_331" data-name="사각형 331" width="20.02" height="20.02" transform="translate(0 0)" fill="none"/>
    </clipPath>
  </defs>
  <g id="그룹_3489" data-name="그룹 3489" clip-path="url(#clip-path)">
    <path id="패스_203" data-name="패스 203" d="M5.8,20.02h0l4.027-.009L14.265,20a5.771,5.771,0,0,0,5.756-5.784v0L20,5.759A5.772,5.772,0,0,0,14.216,0L9.8.011,5.759.02A5.773,5.773,0,0,0,0,5.8l.011,4.5.01,3.956A5.77,5.77,0,0,0,5.8,20.02m-.7-15.993c.036,0,.071-.005.107-.005l1.807,0c1.474.014,1.158,1.766,1.632,2.724a1.2,1.2,0,0,1-.268,1.271l-.763.767a9.632,9.632,0,0,0,3.622,3.6l.763-.767a1.206,1.206,0,0,1,1.27-.274c.97.473,2.726.143,2.731,1.638l0,1.806a1.207,1.207,0,0,1-1.31,1.208A12.112,12.112,0,0,1,4.017,5.337a1.2,1.2,0,0,1,1.088-1.31"/>
  </g>
</svg>
