<svg id="icon_bi_26px" xmlns="http://www.w3.org/2000/svg" xmlns:xlink="http://www.w3.org/1999/xlink" width="121" height="26" viewBox="0 0 121 26">
  <defs>
    <clipPath id="clip-path">
      <rect id="사각형_25" data-name="사각형 25" width="121" height="26" fill="#00b3e6"/>
    </clipPath>
  </defs>
  <g id="img_barrel_bi_wt" clip-path="url(#clip-path)">
    <path id="패스_23" data-name="패스 23" d="M42.874,16.643a5,5,0,0,1-5.242,4.912h-7.49V4.365h6.941A4.878,4.878,0,0,1,42.2,9.128a4.206,4.206,0,0,1-1.773,3.513,4.367,4.367,0,0,1,2.446,4m-9.86-9.627v4.519h4.069a2.26,2.26,0,0,0,0-4.519ZM40,16.5a2.351,2.351,0,0,0-2.371-2.406H33.014V18.9h4.619A2.351,2.351,0,0,0,40,16.5" transform="translate(2.024 0.289)" fill="#00b3e6"/>
    <path id="패스_24" data-name="패스 24" d="M54.338,18.093H46.9l-1.224,3.463h-3.12L48.9,4.365h3.445l6.316,17.191h-3.1Zm-.949-2.652-2.771-7.76-2.77,7.76Z" transform="translate(2.858 0.289)" fill="#00b3e6"/>
    <path id="패스_25" data-name="패스 25" d="M65.318,15.294H61.924v6.262H59.053V4.365h6.99a5.548,5.548,0,0,1,5.616,5.526,5.423,5.423,0,0,1-3.47,4.985l3.97,6.68H69.014Zm-3.395-2.53h4.119a2.8,2.8,0,0,0,2.746-2.873,2.786,2.786,0,0,0-2.746-2.873H61.924Z" transform="translate(3.965 0.289)" fill="#00b3e6"/>
    <path id="패스_26" data-name="패스 26" d="M79.309,15.294H75.915v6.262H73.044V4.365h6.99a5.549,5.549,0,0,1,5.617,5.526,5.425,5.425,0,0,1-3.47,4.985l3.969,6.68H83Zm-3.395-2.53h4.119A2.8,2.8,0,0,0,82.78,9.891a2.786,2.786,0,0,0-2.746-2.873H75.915Z" transform="translate(4.905 0.289)" fill="#00b3e6"/>
    <path id="패스_27" data-name="패스 27" d="M114.078,18.854v2.7H103.071V4.365h2.872V18.854Z" transform="translate(6.921 0.289)" fill="#00b3e6"/>
    <path id="패스_28" data-name="패스 28" d="M87.544,7.641c4.541-1.954,9.083,1.735,13.623-.22,0-.889-.015-1.786-.015-2.675-4.541,1.954-9.068-1.728-13.608.226Z" transform="translate(5.879 0.29)" fill="#00b3e6"/>
    <path id="패스_29" data-name="패스 29" d="M87.544,14.132c4.541-1.954,9.083,1.735,13.623-.22,0-.889-.015-1.786-.015-2.675-4.541,1.954-9.068-1.728-13.608.226Z" transform="translate(5.879 0.719)" fill="#00b3e6"/>
    <path id="패스_30" data-name="패스 30" d="M87.544,20.623c4.541-1.954,9.083,1.735,13.623-.22,0-.889-.015-1.786-.015-2.675-4.541,1.954-9.068-1.728-13.608.226Z" transform="translate(5.879 1.148)" fill="#00b3e6"/>
    <path id="패스_31" data-name="패스 31" d="M8.284,9.131c3-1.292,6,1.147,9.007-.145,0-.588-.01-1.18-.01-1.769-3,1.292-6-1.143-9,.149Z" transform="translate(0.556 0.461)" fill="#00b3e6"/>
    <path id="패스_32" data-name="패스 32" d="M8.284,13.422c3-1.292,6,1.147,9.007-.145,0-.588-.01-1.18-.01-1.769-3,1.292-6-1.143-9,.149Z" transform="translate(0.556 0.745)" fill="#00b3e6"/>
    <path id="패스_33" data-name="패스 33" d="M8.284,17.713c3-1.292,6,1.147,9.007-.145,0-.588-.01-1.18-.01-1.769-3,1.292-6-1.142-9,.149Z" transform="translate(0.556 1.029)" fill="#00b3e6"/>
    <path id="패스_34" data-name="패스 34" d="M13.216,26A13.124,13.124,0,0,1,0,13,13.124,13.124,0,0,1,13.216,0,13.124,13.124,0,0,1,26.431,13,13.123,13.123,0,0,1,13.216,26m0-24.134A11.241,11.241,0,0,0,1.9,13,11.24,11.24,0,0,0,13.216,24.134,11.24,11.24,0,0,0,24.535,13,11.241,11.241,0,0,0,13.216,1.865" transform="translate(0 0)" fill="#00b3e6"/>
  </g>
</svg>
