<svg xmlns="http://www.w3.org/2000/svg" width="72" height="14.411" viewBox="0 0 72 14.411">
  <g id="그룹_3534" data-name="그룹 3534" transform="translate(-221.128 -18.401)">
    <path id="패스_1" data-name="패스 1" d="M99.084,23.17a4.08,4.08,0,0,1-4.249,4.047h-6.07V13.053H94.39a3.982,3.982,0,0,1,4.148,3.925A3.483,3.483,0,0,1,97.1,19.872a3.605,3.605,0,0,1,1.983,3.3m-7.992-7.931v3.723h3.3a1.862,1.862,0,0,0,0-3.723Zm5.665,7.81a1.923,1.923,0,0,0-1.922-1.983H91.092v3.966h3.743a1.923,1.923,0,0,0,1.922-1.983" transform="translate(132.363 5.348)" fill="#00b3e6"/>
    <path id="패스_2" data-name="패스 2" d="M134.866,24.364h-6.03l-.992,2.853h-2.529l5.139-14.164h2.792l5.119,14.164h-2.509Zm-.769-2.185-2.246-6.394-2.246,6.394Z" transform="translate(106.548 5.348)" fill="#00b3e6"/>
    <path id="패스_3" data-name="패스 3" d="M178.979,22.057h-2.752v5.16H173.9V13.053h5.665a4.534,4.534,0,0,1,4.553,4.553,4.468,4.468,0,0,1-2.813,4.108l3.217,5.5h-2.549Zm-2.752-2.084h3.338a2.372,2.372,0,0,0,0-4.735h-3.338Z" transform="translate(72.234 5.348)" fill="#00b3e6"/>
    <path id="패스_4" data-name="패스 4" d="M220.179,22.057h-2.752v5.16H215.1V13.053h5.665a4.534,4.534,0,0,1,4.553,4.553,4.468,4.468,0,0,1-2.813,4.108l3.217,5.5h-2.549Zm-2.752-2.084h3.339a2.372,2.372,0,0,0,0-4.735h-3.339Z" transform="translate(43.135 5.348)" fill="#00b3e6"/>
    <path id="패스_5" data-name="패스 5" d="M312.446,24.991v2.226h-8.922V13.053h2.327V24.991Z" transform="translate(-19.318 5.348)" fill="#00b3e6"/>
    <path id="패스_6" data-name="패스 6" d="M257.8,15.787c3.68-1.61,7.361,1.429,11.042-.181,0-.733-.012-1.472-.012-2.2-3.681,1.61-7.349-1.424-11.03.186Z" transform="translate(12.977 5.314)" fill="#00b3e6"/>
    <path id="패스_7" data-name="패스 7" d="M257.8,35.2c3.68-1.61,7.361,1.429,11.042-.181,0-.733-.012-1.472-.012-2.2-3.681,1.61-7.349-1.424-11.03.186Z" transform="translate(12.977 -8.396)" fill="#00b3e6"/>
    <path id="패스_8" data-name="패스 8" d="M257.8,54.611c3.68-1.61,7.361,1.429,11.042-.181,0-.733-.012-1.472-.012-2.2-3.681,1.61-7.349-1.424-11.03.186Z" transform="translate(12.977 -22.106)" fill="#00b3e6"/>
  </g>
</svg>
