<svg id="icon_mypage_18px" xmlns="http://www.w3.org/2000/svg" width="18" height="18" viewBox="0 0 18 18">
  <g id="그룹_2703" data-name="그룹 2703" transform="translate(-250 -518)">
    <g id="사각형_182" data-name="사각형 182" transform="translate(250 526)" fill="none" stroke="#000" stroke-width="1.5">
      <path d="M9,0H9a9,9,0,0,1,9,9v1a0,0,0,0,1,0,0H0a0,0,0,0,1,0,0V9A9,9,0,0,1,9,0Z" stroke="none"/>
      <path d="M9,.75H9A8.25,8.25,0,0,1,17.25,9v.25a0,0,0,0,1,0,0H.75a0,0,0,0,1,0,0V9A8.25,8.25,0,0,1,9,.75Z" fill="none"/>
    </g>
    <g id="패스_83" data-name="패스 83" transform="translate(254.5 518)" fill="none">
      <path d="M4.5,0A4.556,4.556,0,0,1,9,4.609,4.371,4.371,0,0,1,4.5,9,4.371,4.371,0,0,1,0,4.609,4.556,4.556,0,0,1,4.5,0Z" stroke="none"/>
      <path d="M 4.499999523162842 1.5 C 2.845789432525635 1.5 1.499999523162842 2.894760131835938 1.499999523162842 4.609149932861328 C 1.499999523162842 6.257200241088867 2.789719581604004 7.5 4.499999523162842 7.5 C 6.21027946472168 7.5 7.499999523162842 6.257200241088867 7.499999523162842 4.609149932861328 C 7.499999523162842 2.894760131835938 6.154209613800049 1.5 4.499999523162842 1.5 M 4.499999523162842 0 C 6.985279560089111 0 9 2.063590049743652 9 4.609149932861328 C 9 7.154719829559326 6.985279560089111 9 4.499999523162842 9 C 2.014719486236572 9 -9.5367431640625e-07 7.154719829559326 -9.5367431640625e-07 4.609149932861328 C -9.5367431640625e-07 2.063590049743652 2.014719486236572 0 4.499999523162842 0 Z" stroke="none" fill="#000"/>
    </g>
  </g>
</svg>
