<svg xmlns="http://www.w3.org/2000/svg" width="16.2" height="18" viewBox="0 0 16.2 18">
  <path id="calendar_month_FILL0_wght400_GRAD0_opsz48" d="M121.35-862a1.3,1.3,0,0,1-.945-.405,1.3,1.3,0,0,1-.405-.945V-877.3a1.3,1.3,0,0,1,.405-.945,1.3,1.3,0,0,1,.945-.405h1.462V-880h1.463v1.35h7.65V-880h1.463v1.35h1.462a1.3,1.3,0,0,1,.945.405,1.3,1.3,0,0,1,.405.945v13.95a1.3,1.3,0,0,1-.405.945,1.3,1.3,0,0,1-.945.405Zm0-1.35h13.5v-9.675h-13.5Zm0-11.025h13.5V-877.3h-13.5Zm0,0v0Zm6.75,5.175a.871.871,0,0,1-.641-.259.871.871,0,0,1-.259-.641.871.871,0,0,1,.259-.641A.871.871,0,0,1,128.1-871a.871.871,0,0,1,.641.259.871.871,0,0,1,.259.641.871.871,0,0,1-.259.641A.871.871,0,0,1,128.1-869.2Zm-3.6,0a.871.871,0,0,1-.641-.259.871.871,0,0,1-.259-.641.871.871,0,0,1,.259-.641A.871.871,0,0,1,124.5-871a.871.871,0,0,1,.641.259.871.871,0,0,1,.259.641.871.871,0,0,1-.259.641A.871.871,0,0,1,124.5-869.2Zm7.2,0a.871.871,0,0,1-.641-.259.871.871,0,0,1-.259-.641.871.871,0,0,1,.259-.641A.871.871,0,0,1,131.7-871a.871.871,0,0,1,.641.259.871.871,0,0,1,.259.641.871.871,0,0,1-.259.641A.871.871,0,0,1,131.7-869.2Zm-3.6,3.6a.871.871,0,0,1-.641-.259.871.871,0,0,1-.259-.641.871.871,0,0,1,.259-.641.871.871,0,0,1,.641-.259.871.871,0,0,1,.641.259.871.871,0,0,1,.259.641.871.871,0,0,1-.259.641A.871.871,0,0,1,128.1-865.6Zm-3.6,0a.871.871,0,0,1-.641-.259.871.871,0,0,1-.259-.641.871.871,0,0,1,.259-.641.871.871,0,0,1,.641-.259.871.871,0,0,1,.641.259.871.871,0,0,1,.259.641.871.871,0,0,1-.259.641A.871.871,0,0,1,124.5-865.6Zm7.2,0a.871.871,0,0,1-.641-.259.871.871,0,0,1-.259-.641.871.871,0,0,1,.259-.641.871.871,0,0,1,.641-.259.871.871,0,0,1,.641.259.871.871,0,0,1,.259.641.871.871,0,0,1-.259.641A.871.871,0,0,1,131.7-865.6Z" transform="translate(-120 880)" fill="#a5a5a5"/>
</svg>
