<svg xmlns="http://www.w3.org/2000/svg" width="53.373" height="2.998" viewBox="0 0 53.373 2.998">
  <g id="그룹_3650" data-name="그룹 3650" transform="translate(24072.367 23630.576)">
    <path id="패스_515" data-name="패스 515" d="M28.709,26.207c2.272-.994,4.544.882,6.815-.112,0-.452-.007-.908-.007-1.36-2.272.994-4.536-.879-6.808.115Z" transform="translate(-24094.02 -23654.549)" fill="#00b3e6" stroke="rgba(0,0,0,0)" stroke-width="1"/>
    <path id="패스_519" data-name="패스 519" d="M28.709,26.207c2.272-.994,4.544.882,6.815-.112,0-.452-.007-.908-.007-1.36-2.272.994-4.536-.879-6.808.115Z" transform="translate(-24068.02 -23654.549)" fill="#00b3e6" stroke="rgba(0,0,0,0)" stroke-width="1"/>
    <path id="패스_517" data-name="패스 517" d="M28.709,26.207c2.272-.994,4.544.882,6.815-.112,0-.452-.007-.908-.007-1.36-2.272.994-4.536-.879-6.808.115Z" transform="translate(-24081.02 -23654.549)" fill="#00b3e6" stroke="rgba(0,0,0,0)" stroke-width="1"/>
    <path id="패스_520" data-name="패스 520" d="M28.709,26.207c2.272-.994,4.544.882,6.815-.112,0-.452-.007-.908-.007-1.36-2.272.994-4.536-.879-6.808.115Z" transform="translate(-24055.02 -23654.549)" fill="#00b3e6" stroke="rgba(0,0,0,0)" stroke-width="1"/>
    <path id="패스_516" data-name="패스 516" d="M28.709,26.207c2.272-.994,4.544.882,6.815-.112,0-.452-.007-.908-.007-1.36-2.272.994-4.536-.879-6.808.115Z" transform="translate(-24100.576 -23654.549)" fill="#00b3e6" stroke="rgba(0,0,0,0)" stroke-width="1"/>
    <path id="패스_521" data-name="패스 521" d="M28.709,26.207c2.272-.994,4.544.882,6.815-.112,0-.452-.007-.908-.007-1.36-2.272.994-4.536-.879-6.808.115Z" transform="translate(-24074.576 -23654.549)" fill="#00b3e6" stroke="rgba(0,0,0,0)" stroke-width="1"/>
    <path id="패스_518" data-name="패스 518" d="M28.709,26.207c2.272-.994,4.544.882,6.815-.112,0-.452-.007-.908-.007-1.36-2.272.994-4.536-.879-6.808.115Z" transform="translate(-24087.576 -23654.549)" fill="#00b3e6" stroke="rgba(0,0,0,0)" stroke-width="1"/>
    <path id="패스_522" data-name="패스 522" d="M28.709,26.207c2.272-.994,4.544.882,6.815-.112,0-.452-.007-.908-.007-1.36-2.272.994-4.536-.879-6.808.115Z" transform="translate(-24061.576 -23654.549)" fill="#00b3e6" stroke="rgba(0,0,0,0)" stroke-width="1"/>
  </g>
</svg>
