<?xml version="1.0" encoding="utf-8"?>
<!-- Generator: Adobe Illustrator 23.1.0, SVG Export Plug-In . SVG Version: 6.00 Build 0)  -->
<svg version="1.1" id="Layer_1" xmlns="http://www.w3.org/2000/svg" xmlns:xlink="http://www.w3.org/1999/xlink" x="0px" y="0px"
	 viewBox="0 0 27.7 32.5" style="enable-background:new 0 0 27.7 32.5;" xml:space="preserve">
<path d="M26.2,8.2c0-0.7-0.6-1.2-1.2-1.2H21c-0.1-3.9-3.2-7-7.1-7C10,0,6.8,3.1,6.8,7h-4C2.1,7,1.5,7.5,1.5,8.2L0,31.2
	c0,0.3,0.1,0.7,0.3,0.9c0.2,0.3,0.6,0.4,0.9,0.4h25.2c0.3,0,0.7-0.1,0.9-0.4c0.2-0.3,0.4-0.6,0.3-0.9L26.2,8.2z M13.9,2.5
	c2.5,0,4.5,2,4.6,4.5H9.3C9.3,4.5,11.4,2.5,13.9,2.5z M2.6,30L3.9,9.5h2.9v1.6C6.3,11.5,6,12,6,12.6c0,1.1,0.9,2,2,2
	c1.1,0,2-0.9,2-2c0-0.6-0.3-1.2-0.7-1.5V9.5h9.2v1.6c-0.5,0.4-0.7,0.9-0.7,1.5c0,1.1,0.9,2,2,2s2-0.9,2-2c0-0.6-0.3-1.2-0.8-1.5V9.5
	h2.7L25.1,30H2.6z"/>
</svg>
