<?xml version="1.0" encoding="utf-8"?>
<!-- Generator: Adobe Illustrator 23.1.0, SVG Export Plug-In . SVG Version: 6.00 Build 0)  -->
<svg version="1.1" id="Layer_1" xmlns="http://www.w3.org/2000/svg" xmlns:xlink="http://www.w3.org/1999/xlink" x="0px" y="0px"
	 viewBox="0 0 39.5 32.5" style="enable-background:new 0 0 39.5 32.5;" xml:space="preserve">
<g>
	<path d="M1.3,2.5h37c0.7,0,1.3-0.6,1.3-1.3S38.9,0,38.2,0h-37C0.6,0,0,0.6,0,1.3S0.6,2.5,1.3,2.5z"/>
	<path d="M38.2,15h-37C0.6,15,0,15.6,0,16.3s0.6,1.3,1.3,1.3h37c0.7,0,1.3-0.6,1.3-1.3S38.9,15,38.2,15z"/>
	<path d="M38.2,30h-37C0.6,30,0,30.6,0,31.3s0.6,1.3,1.3,1.3h37c0.7,0,1.3-0.6,1.3-1.3S38.9,30,38.2,30z"/>
</g>
</svg>
