<?xml version="1.0" encoding="utf-8"?>
<!-- Generator: Adobe Illustrator 23.1.0, SVG Export Plug-In . SVG Version: 6.00 Build 0)  -->
<svg version="1.1" id="Layer_1" xmlns="http://www.w3.org/2000/svg" xmlns:xlink="http://www.w3.org/1999/xlink" x="0px" y="0px"
	 viewBox="0 0 35.5 32.6" style="enable-background:new 0 0 35.5 32.6;" xml:space="preserve">
<style type="text/css">
	.st0{fill:#FFFFFF;}
</style>
<g>
	<g>
		<path d="M34,5.3H1.6c-0.7,0-1.3-0.5-1.3-1.2s0.6-1.3,1.3-1.3H34c0.7,0,1.3,0.6,1.3,1.3S34.7,5.3,34,5.3z"/>
	</g>
	<g>
		<path d="M34,17.6H1.6c-0.7,0-1.3-0.6-1.3-1.3s0.6-1.2,1.3-1.2H34c0.7,0,1.3,0.6,1.3,1.3S34.7,17.6,34,17.6z"/>
	</g>
	<g>
		<path d="M34,29.9H1.6c-0.7,0-1.3-0.6-1.3-1.3s0.6-1.3,1.3-1.3H34c0.7,0,1.3,0.6,1.3,1.3S34.7,29.9,34,29.9z"/>
	</g>
	<g>
		<circle class="st0" cx="4" cy="4.1" r="2.7"/>
		<path d="M4,8C1.8,8,0,6.2,0,4s1.8-4,4-4s4,1.8,4,4S6.1,8,4,8z M4,2.6c-0.8,0-1.5,0.7-1.5,1.5S3.2,5.6,4,5.6s1.4-0.7,1.4-1.5
			S4.8,2.6,4,2.6z"/>
	</g>
	<g>
		<circle class="st0" cx="31.5" cy="16.4" r="2.7"/>
		<path d="M31.5,20.3c-2.2,0-4-1.8-4-4s1.8-4,4-4s4,1.8,4,4S33.7,20.3,31.5,20.3z M31.5,14.9c-0.8,0-1.5,0.7-1.5,1.5
			s0.7,1.5,1.5,1.5s1.5-0.7,1.5-1.5S32.4,14.9,31.5,14.9z"/>
	</g>
	<g>
		<circle class="st0" cx="12.6" cy="28.6" r="2.7"/>
		<path d="M12.6,32.6c-2.2,0-4-1.8-4-4s1.8-4,4-4s4,1.8,4,4S14.8,32.6,12.6,32.6z M12.6,27.2c-0.8,0-1.5,0.7-1.5,1.5
			s0.7,1.5,1.5,1.5s1.5-0.7,1.5-1.5S13.4,27.2,12.6,27.2z"/>
	</g>
</g>
</svg>
