<?xml version="1.0" encoding="utf-8"?>
<!-- Generator: Adobe Illustrator 23.1.0, SVG Export Plug-In . SVG Version: 6.00 Build 0)  -->
<svg version="1.1" id="Layer_1" xmlns="http://www.w3.org/2000/svg" xmlns:xlink="http://www.w3.org/1999/xlink" x="0px" y="0px"
	 viewBox="0 0 33.6 32.5" style="enable-background:new 0 0 33.6 32.5;" xml:space="preserve">
<path d="M33.2,16.6L17.6,0.4C17.4,0.1,17.1,0,16.7,0c0,0,0,0,0,0c-0.3,0-0.7,0.1-0.9,0.4L0.3,16.6c-0.5,0.5-0.5,1.3,0,1.8
	c0.2,0.2,0.6,0.3,0.9,0.3c0.3,0,0.7-0.1,0.9-0.4L3.4,17v14.3c0,0.7,0.6,1.3,1.2,1.3h8c0.7,0,1.3-0.6,1.3-1.3v-7.7h5.5v7.7
	c0,0.7,0.6,1.3,1.3,1.3h8c0.7,0,1.3-0.6,1.3-1.3V16.8l1.5,1.6c0.5,0.5,1.3,0.5,1.8,0C33.7,17.9,33.7,17.1,33.2,16.6z M27.4,14.4V30
	h-5.5v-7.7c0-0.7-0.6-1.3-1.3-1.3h-8c-0.7,0-1.3,0.6-1.3,1.3V30H5.9V14.4c0,0,0,0,0,0L16.7,3.1l10.7,11.1
	C27.4,14.3,27.4,14.3,27.4,14.4z"/>
</svg>
