<?xml version="1.0" encoding="utf-8"?>
<!-- Generator: Adobe Illustrator 23.1.0, SVG Export Plug-In . SVG Version: 6.00 Build 0)  -->
<svg version="1.1" id="Layer_1" xmlns="http://www.w3.org/2000/svg" xmlns:xlink="http://www.w3.org/1999/xlink" x="0px" y="0px"
	 viewBox="0 0 32.5 32.5" style="enable-background:new 0 0 32.5 32.5;" xml:space="preserve">
<g>
	<g>
		<path d="M12.6,13.9H1.3c-0.7,0-1.3-0.6-1.3-1.3V1.3C0,0.6,0.6,0,1.3,0h11.4c0.7,0,1.3,0.6,1.3,1.3v11.4
			C13.9,13.3,13.3,13.9,12.6,13.9z M2.5,11.4h8.9V2.5H2.5V11.4z"/>
	</g>
	<g>
		<path d="M12.6,32.5H1.3c-0.7,0-1.3-0.6-1.3-1.3V19.9c0-0.7,0.6-1.3,1.3-1.3h11.4c0.7,0,1.3,0.6,1.3,1.3v11.4
			C13.9,31.9,13.3,32.5,12.6,32.5z M2.5,30h8.9v-8.9H2.5V30z"/>
	</g>
	<g>
		<path d="M31.3,13.9H19.9c-0.7,0-1.3-0.6-1.3-1.3V1.3c0-0.7,0.6-1.3,1.3-1.3h11.4c0.7,0,1.3,0.6,1.3,1.3v11.4
			C32.5,13.3,31.9,13.9,31.3,13.9z M21.1,11.4H30V2.5h-8.9V11.4z"/>
	</g>
	<g>
		<path d="M31.3,32.5H19.9c-0.7,0-1.3-0.6-1.3-1.3V19.9c0-0.7,0.6-1.3,1.3-1.3h11.4c0.7,0,1.3,0.6,1.3,1.3v11.4
			C32.5,31.9,31.9,32.5,31.3,32.5z M21.1,30H30v-8.9h-8.9V30z"/>
	</g>
</g>
</svg>
