<?xml version="1.0" encoding="utf-8"?>
<!-- Generator: Adobe Illustrator 23.1.0, SVG Export Plug-In . SVG Version: 6.00 Build 0)  -->
<svg version="1.1" id="Layer_1" xmlns="http://www.w3.org/2000/svg" xmlns:xlink="http://www.w3.org/1999/xlink" x="0px" y="0px"
	 viewBox="0 0 220 81" style="enable-background:new 0 0 220 81;" xml:space="preserve">
<g>
	<g>
		<g>
			<g>
				<path d="M75.3,39.6c1.4-1.6,2.1-3.8,2.1-6.2c0-3.8-1.7-6.8-4.9-8.5c-2.1-1.1-4.1-1.1-4.7-1.1H56.5V57h11.3c0.3,0,2.8,0,5.4-1.1
					c3.9-1.6,6-4.6,6-8.6C79.2,44,77.8,41.3,75.3,39.6z M67.8,51.9h-6.2V43h7.9c0,0,1.3,0,2.4,0.6c1.4,0.7,2,1.9,2,3.8
					c0,1.8-0.8,3-2.7,3.8C69.6,51.9,67.8,51.9,67.8,51.9z M70.2,37.2c-1.1,0.6-2.4,0.6-2.4,0.6h-6.2v-8.9h6.1c0,0,1.2,0,2.4,0.6
					c1.4,0.7,2.1,1.9,2.1,3.9C72.2,35.3,71.6,36.5,70.2,37.2z"/>
			</g>
		</g>
		<g>
			<g>
				<path d="M90.1,23.8L79.4,57H85l1.3-4.1c0.5,0.1,1.1,0.2,1.6,0.2c1.9,0,3.7-0.8,5.5-1.5c1.7-0.7,3.3-1.4,4.9-1.4
					c0.3,0,0.6,0,0.9,0.1l2.2,6.8h5.5L96.2,23.8H90.1z M93.1,31.5L97.4,45c-1.6,0.2-3.1,0.8-4.7,1.5c-1.7,0.7-3.3,1.4-4.9,1.4
					L93.1,31.5z"/>
			</g>
		</g>
		<g>
			<g>
				<path d="M126.1,41.9c3.9-1.6,6-4.6,6-8.6c0-3.9-2.2-7-6-8.5c-2.6-1-5.1-1-5.4-1h-11.3V57h5.2V43h3.8l8,14h5.9l-8.3-14.5
					C124.7,42.4,125.4,42.2,126.1,41.9z M114.6,29h6.2c0,0,1.8,0,3.5,0.7c1.8,0.8,2.7,1.9,2.7,3.7c0,1.8-0.9,3-2.7,3.7
					c-1.7,0.7-3.5,0.7-3.5,0.7h-6.2V29z"/>
			</g>
		</g>
		<g>
			<g>
				<path d="M150.2,42.6c0.6-0.1,1.4-0.3,2.1-0.6c3.9-1.6,6-4.6,6-8.6c0-3.9-2.2-7-6-8.5c-2.6-1-5.1-1-5.4-1h-11.3V57h5.2V43h3.8
					l8,14h5.9L150.2,42.6z M140.7,29h6.2c0,0,1.8,0,3.5,0.7c1.8,0.8,2.7,1.9,2.7,3.7c0,1.8-0.9,3-2.7,3.7c-1.7,0.7-3.5,0.7-3.5,0.7
					h-6.2V29z"/>
			</g>
		</g>
		<g>
			<g>
				<path d="M188.9,51.8c-0.8,0-1.6-0.3-2.4-0.6c-0.9-0.4-1.9-0.7-3-0.7c-0.9,0-1.7,0.3-2.4,0.8c-0.5,0.3-0.9,0.5-1.5,0.5
					c-0.8,0-1.6-0.3-2.4-0.6c-0.9-0.4-1.9-0.7-3-0.7c-0.9,0-1.7,0.3-2.4,0.8c-0.5,0.3-0.9,0.5-1.5,0.5c-0.8,0-1.6-0.3-2.4-0.6
					c-0.9-0.4-1.9-0.7-3-0.7c-0.9,0-1.7,0.3-2.4,0.8l-0.3,0.2V57l1.3-1c0.5-0.4,0.9-0.5,1.5-0.5c0.8,0,1.6,0.3,2.4,0.6
					c0.9,0.4,1.9,0.7,3,0.7c0.8,0,1.6-0.3,2.4-0.8c0.5-0.4,0.9-0.5,1.5-0.5c0.7,0,1.6,0.3,2.4,0.6c0.9,0.4,1.9,0.7,3,0.7
					c0.8,0,1.6-0.3,2.4-0.8c0.5-0.4,0.9-0.5,1.5-0.5c0.8,0,1.6,0.3,2.4,0.6c0.9,0.4,1.9,0.7,3,0.7c0.8,0,1.6-0.3,2.4-0.8l0.3-0.2
					v-5.5l-1.3,1C189.9,51.6,189.5,51.8,188.9,51.8z"/>
			</g>
			<g>
				<path d="M190.4,24.8c-0.5,0.3-0.9,0.5-1.5,0.5c-0.7,0-1.5-0.3-2.4-0.6c-0.9-0.4-1.9-0.7-3-0.7c-0.8,0-1.7,0.3-2.4,0.8
					c-0.5,0.3-0.9,0.5-1.5,0.5c-0.7,0-1.5-0.3-2.4-0.6c-0.9-0.4-1.9-0.7-3-0.7c-0.8,0-1.7,0.3-2.4,0.8c-0.5,0.3-0.9,0.5-1.5,0.5
					c-0.7,0-1.5-0.3-2.4-0.6c-0.9-0.4-1.9-0.7-3-0.7c-0.8,0-1.7,0.3-2.4,0.8l-0.3,0.2v5.5l1.3-1c0.5-0.3,0.9-0.5,1.5-0.5
					c0.7,0,1.5,0.3,2.4,0.6c0.9,0.4,1.9,0.7,3,0.7c0.9,0,1.7-0.3,2.4-0.8c0.5-0.3,0.9-0.5,1.5-0.5c0.7,0,1.5,0.3,2.4,0.6
					c0.9,0.4,1.9,0.7,3,0.7c0.9,0,1.7-0.3,2.4-0.8c0.5-0.3,0.9-0.5,1.5-0.5c0.7,0,1.5,0.3,2.4,0.6c0.9,0.4,1.9,0.7,3,0.7
					c0.9,0,1.7-0.3,2.5-0.8l0.3-0.2v-5.5L190.4,24.8z"/>
			</g>
			<g>
				<path d="M188.9,38.9c-0.7,0-1.5-0.3-2.4-0.6c-0.9-0.4-1.9-0.7-3-0.7c-0.8,0-1.7,0.3-2.4,0.8l0,0c-0.5,0.4-0.9,0.5-1.4,0.5
					c-0.7,0-1.5-0.3-2.4-0.6c-0.9-0.4-1.9-0.7-3-0.7c-0.8,0-1.7,0.3-2.4,0.8l0,0c-0.5,0.4-0.9,0.5-1.4,0.5c-0.7,0-1.5-0.3-2.4-0.6
					c-0.9-0.4-1.9-0.7-3-0.7c-0.8,0-1.7,0.3-2.4,0.8l-0.3,0.2v5.5l1.3-1c0.5-0.4,0.9-0.5,1.4-0.5c0.7,0,1.5,0.3,2.4,0.6
					c0.9,0.4,1.9,0.7,3,0.7c0.9,0,1.7-0.3,2.5-0.8c0.5-0.4,0.9-0.5,1.4-0.5c0.7,0,1.5,0.3,2.4,0.6c0.9,0.4,1.9,0.7,3,0.7
					c0.9,0,1.7-0.3,2.5-0.8c0.5-0.4,0.9-0.5,1.4-0.5c0.7,0,1.5,0.3,2.4,0.6c0.9,0.4,1.9,0.7,3,0.7c0.9,0,1.7-0.3,2.5-0.8l0.3-0.2
					v-5.6l-1.3,1.1C189.9,38.9,189.4,38.9,188.9,38.9z"/>
			</g>
		</g>
		<g>
			<path d="M218.9,51c-1.4,0.5-2.9,0.7-4.4,0.7c-2.1,0-4.3-0.4-6.4-0.7c-2.2-0.4-4.4-0.7-6.6-0.7c-0.1,0-0.1,0-0.1,0V23.9h-5.4v32.8
				l1.1-0.4c1.3-0.5,2.8-0.7,4.5-0.7c2.1,0,4.2,0.4,6.3,0.7c2.1,0.4,4.4,0.7,6.6,0.7c1.9,0,3.5-0.2,5-0.8l0.6-0.2v-5.5L218.9,51z"/>
		</g>
		<g>
			<g>
				<g>
					<path d="M30.1,47.1c-0.4,0-0.9-0.2-1.4-0.4c-0.6-0.2-1.1-0.4-1.7-0.4c-0.5,0-1,0.2-1.4,0.5c-0.3,0.2-0.5,0.3-0.8,0.3
						c-0.4,0-0.9-0.2-1.4-0.4c-0.6-0.2-1.1-0.4-1.7-0.4c-0.5,0-1,0.2-1.4,0.5c-0.3,0.2-0.5,0.3-0.8,0.3c-0.4,0-0.9-0.2-1.4-0.4
						c-0.6-0.2-1.1-0.4-1.7-0.4c-0.5,0-1,0.2-1.5,0.5L14.4,47v3.3l0.8-0.6c0.3-0.2,0.5-0.3,0.8-0.3c0.4,0,0.9,0.2,1.4,0.4
						c0.6,0.2,1.1,0.4,1.7,0.4c0.5,0,1-0.2,1.4-0.5c0.3-0.2,0.5-0.3,0.8-0.3c0.4,0,0.9,0.2,1.4,0.4c0.6,0.2,1.1,0.4,1.7,0.4
						c0.5,0,1-0.2,1.4-0.5c0.3-0.2,0.5-0.3,0.8-0.3c0.4,0,0.9,0.2,1.4,0.4c0.6,0.2,1.1,0.4,1.7,0.4c0.5,0,1-0.2,1.4-0.5l0.2-0.2
						v-3.3l-0.8,0.6C30.7,47.1,30.4,47.1,30.1,47.1z"/>
				</g>
				<g>
					<path d="M30.1,39.6c-0.4,0-0.9-0.2-1.4-0.4c-0.6-0.2-1.1-0.4-1.8-0.4c-0.5,0-1,0.2-1.4,0.5l0,0c-0.3,0.2-0.5,0.3-0.8,0.3
						c-0.4,0-0.9-0.2-1.4-0.4c-0.6-0.2-1.1-0.4-1.8-0.4c-0.5,0-1,0.2-1.4,0.5l0,0c-0.3,0.2-0.5,0.3-0.8,0.3c-0.4,0-0.9-0.2-1.4-0.4
						c-0.6-0.2-1.1-0.4-1.7-0.4c-0.5,0-1,0.2-1.4,0.5l-0.2,0.2v3.3l0.8-0.7c0.3-0.2,0.5-0.3,0.8-0.3c0.4,0,0.9,0.2,1.4,0.4
						c0.6,0.2,1.1,0.4,1.8,0.4c0.5,0,1-0.2,1.5-0.5c0.3-0.2,0.5-0.3,0.8-0.3c0.4,0,0.9,0.2,1.4,0.4c0.6,0.2,1.1,0.4,1.8,0.4
						c0.5,0,1-0.2,1.5-0.5c0.3-0.2,0.5-0.3,0.8-0.3c0.4,0,0.9,0.2,1.4,0.4c0.6,0.2,1.1,0.4,1.8,0.4c0.5,0,1-0.2,1.5-0.5l0.2-0.2
						v-3.4l-0.8,0.7C30.7,39.6,30.4,39.6,30.1,39.6z"/>
				</g>
				<g>
					<path d="M30.9,31.3c-0.3,0.2-0.5,0.3-0.8,0.3c-0.4,0-0.9-0.2-1.4-0.4c-0.6-0.2-1.1-0.4-1.8-0.4c-0.5,0-1,0.2-1.5,0.5
						c-0.3,0.2-0.5,0.3-0.8,0.3c-0.4,0-0.9-0.2-1.4-0.4c-0.6-0.2-1.1-0.4-1.8-0.4c-0.5,0-1,0.2-1.5,0.5c-0.3,0.2-0.5,0.3-0.8,0.3
						c-0.4,0-0.9-0.2-1.4-0.4c-0.6-0.2-1.1-0.4-1.7-0.4c-0.5,0-1,0.2-1.4,0.5l-0.2,0.2v3.3l0.8-0.6c0.3-0.2,0.5-0.3,0.8-0.3
						c0.4,0,0.9,0.2,1.4,0.4c0.6,0.2,1.1,0.4,1.8,0.4c0.5,0,1-0.2,1.5-0.5c0.3-0.2,0.5-0.3,0.8-0.3c0.4,0,0.9,0.2,1.4,0.4
						c0.6,0.2,1.1,0.4,1.7,0.4c0.5,0,1-0.2,1.5-0.5c0.3-0.2,0.5-0.3,0.8-0.3c0.4,0,0.9,0.2,1.4,0.4c0.6,0.2,1.1,0.4,1.8,0.4
						c0.5,0,1-0.2,1.5-0.5l0.2-0.2v-3.3L30.9,31.3z"/>
				</g>
			</g>
			<g>
				<path d="M23.1,63.6C10.4,63.6,0,53.2,0,40.5c0-12.7,10.4-23.1,23.1-23.1c12.7,0,23.1,10.4,23.1,23.1
					C46.2,53.2,35.8,63.6,23.1,63.6z M23.1,20.7c-10.9,0-19.8,8.9-19.8,19.8c0,10.9,8.9,19.8,19.8,19.8c10.9,0,19.8-8.9,19.8-19.8
					C42.9,29.6,34,20.7,23.1,20.7z"/>
			</g>
		</g>
	</g>
</g>
</svg>
