<?xml version="1.0" encoding="utf-8"?>
<!-- Generator: Adobe Illustrator 23.1.0, SVG Export Plug-In . SVG Version: 6.00 Build 0)  -->
<svg version="1.1" id="Layer_1" xmlns="http://www.w3.org/2000/svg" xmlns:xlink="http://www.w3.org/1999/xlink" x="0px" y="0px"
	 viewBox="0 0 28 32.5" style="enable-background:new 0 0 28 32.5;" xml:space="preserve">
<path d="M20.8,13c0.9-1.3,1.5-3,1.5-4.7C22.3,3.7,18.6,0,14,0C9.4,0,5.7,3.7,5.7,8.3c0,1.8,0.6,3.4,1.5,4.7C2.8,15.5,0,20.1,0,25.3
	v6c0,0.7,0.6,1.3,1.3,1.3s1.3-0.6,1.3-1.3v-6c0-4.5,2.6-8.5,6.6-10.4c1.4,1,3.1,1.7,4.9,1.7c1.9,0,3.6-0.6,4.9-1.7
	c4,1.9,6.6,5.9,6.6,10.4v6c0,0.7,0.6,1.3,1.3,1.3s1.3-0.6,1.3-1.3v-6C28,20.1,25.2,15.5,20.8,13z M8.2,8.3c0-3.2,2.6-5.8,5.8-5.8
	s5.8,2.6,5.8,5.8c0,3.2-2.6,5.8-5.8,5.8S8.2,11.5,8.2,8.3z"/>
</svg>
