<?xml version="1.0" encoding="utf-8"?>
<!-- Generator: Adobe Illustrator 23.1.0, SVG Export Plug-In . SVG Version: 6.00 Build 0)  -->
<svg version="1.1" id="Layer_1" xmlns="http://www.w3.org/2000/svg" xmlns:xlink="http://www.w3.org/1999/xlink" x="0px" y="0px"
	 viewBox="0 0 51.5 30.5" style="enable-background:new 0 0 51.5 30.5;" xml:space="preserve">
<g>
	<path d="M43,18.1c-0.7,0-1.3,0.6-1.3,1.3v3.2h-3.8c-0.9-1.3-2.4-2.2-4.2-2.2c-1.7,0-3.3,0.9-4.2,2.2H17.9V6.5v-4h23.8v2.8
		c0,0.7,0.6,1.3,1.3,1.3s1.3-0.6,1.3-1.3v-4C44.2,0.6,43.6,0,43,0H16.7c-0.7,0-1.3,0.6-1.3,1.3v4H9.1C7.6,5.3,6.3,6,5.6,7.1
		l-4.7,6.5c-0.6,0.9-0.9,2-0.9,3.2v7.1c0,0.7,0.6,1.3,1.3,1.3h3.2c0,0.1,0,0.2,0,0.3c0,2.8,2.3,5.1,5.1,5.1c2.8,0,5.1-2.3,5.1-5.1
		c0-0.1,0-0.2,0-0.3h14.2c0,0.1,0,0.2,0,0.3c0,2.8,2.3,5.1,5.1,5.1c2.8,0,5.1-2.3,5.1-5.1c0-0.1,0-0.2,0-0.3H43
		c0.7,0,1.3-0.6,1.3-1.3v-4.5C44.2,18.7,43.6,18.1,43,18.1z M9.4,28c-1.4,0-2.6-1.1-2.6-2.6s1.1-2.6,2.6-2.6c1.4,0,2.6,1.1,2.6,2.6
		S10.8,28,9.4,28z M9.4,20.4c-1.7,0-3.3,0.9-4.2,2.2H2.5v-5.9c0-0.6,0.2-1.3,0.5-1.8l4.7-6.5C8,8,8.5,7.8,9.1,7.8h6.3v14.9h-1.8
		C12.7,21.3,11.2,20.4,9.4,20.4z M33.7,28c-1.4,0-2.6-1.1-2.6-2.6s1.1-2.6,2.6-2.6c1.4,0,2.6,1.1,2.6,2.6S35.1,28,33.7,28z"/>
	<path d="M50.2,8.7H38.8c-0.7,0-1.3,0.6-1.3,1.3s0.6,1.3,1.3,1.3h11.4c0.7,0,1.3-0.6,1.3-1.3S50.9,8.7,50.2,8.7z"/>
	<path d="M47.3,13.7h-8.5c-0.7,0-1.3,0.6-1.3,1.3s0.6,1.3,1.3,1.3h8.5c0.7,0,1.3-0.6,1.3-1.3S48,13.7,47.3,13.7z"/>
</g>
</svg>
