<?xml version="1.0" encoding="utf-8"?>
<!-- Generator: Adobe Illustrator 23.1.0, SVG Export Plug-In . SVG Version: 6.00 Build 0)  -->
<svg version="1.1" id="Layer_1" xmlns="http://www.w3.org/2000/svg" xmlns:xlink="http://www.w3.org/1999/xlink" x="0px" y="0px"
	 viewBox="0 0 32.5 32.5" style="enable-background:new 0 0 32.5 32.5;" xml:space="preserve">
<path d="M32.1,30.4l-6.9-6.9c4.7-5.6,4.4-14-0.8-19.3c-5.6-5.6-14.7-5.6-20.2,0c-5.6,5.6-5.6,14.7,0,20.2c2.8,2.8,6.5,4.2,10.1,4.2
	c3.3,0,6.5-1.1,9.2-3.3l6.9,6.9c0.2,0.2,0.6,0.4,0.9,0.4c0.3,0,0.6-0.1,0.9-0.4C32.6,31.6,32.6,30.8,32.1,30.4z M6,22.7
	C1.3,18.1,1.3,10.6,6,6c2.3-2.3,5.3-3.5,8.4-3.5c3,0,6.1,1.2,8.4,3.5c4.6,4.6,4.6,12.1,0,16.7C18.1,27.3,10.6,27.3,6,22.7z"/>
</svg>
