<?xml version="1.0" encoding="utf-8"?>
<!-- Generator: Adobe Illustrator 23.1.0, SVG Export Plug-In . SVG Version: 6.00 Build 0)  -->
<svg version="1.1" id="Layer_1" xmlns="http://www.w3.org/2000/svg" xmlns:xlink="http://www.w3.org/1999/xlink" x="0px" y="0px"
	 viewBox="0 0 32.6 32.5" style="enable-background:new 0 0 32.6 32.5;" xml:space="preserve">
<path d="M31.4,0H6.8C6.1,0,5.5,0.6,5.5,1.3v4.1H1.3C0.6,5.4,0,5.9,0,6.6v24.6c0,0.7,0.6,1.3,1.3,1.3h24.6c0.7,0,1.3-0.6,1.3-1.3
	v-4.1h4.3c0.7,0,1.3-0.6,1.3-1.3V1.3C32.6,0.6,32.1,0,31.4,0z M24.6,30H2.5V7.9h22.1V30z M30.1,24.6h-3v-18c0-0.7-0.6-1.3-1.3-1.3H8
	V2.5h22.1V24.6z"/>
</svg>
