<svg xmlns="http://www.w3.org/2000/svg" xmlns:xlink="http://www.w3.org/1999/xlink" width="60" height="60" viewBox="0 0 60 60">
  <defs>
    <clipPath id="clip-path">
      <rect id="사각형_96" data-name="사각형 96" width="14" height="25.057" fill="none" stroke="#a5a5a5" stroke-width="1"/>
    </clipPath>
  </defs>
  <g id="그룹_3701" data-name="그룹 3701" transform="translate(19042 24075)">
    <g id="패스_514" data-name="패스 514" transform="translate(-19042 -24075)" fill="none">
      <path d="M30,0A30,30,0,1,1,0,30,30,30,0,0,1,30,0Z" stroke="none"/>
      <path d="M 30 3 C 26.35369873046875 3 22.81806564331055 3.713455200195312 19.49129867553711 5.120567321777344 C 16.27652359008789 6.480300903320312 13.38872146606445 8.427509307861328 10.90811157226562 10.90811157226562 C 8.427509307861328 13.38872146606445 6.480300903320312 16.27652359008789 5.120567321777344 19.49129867553711 C 3.713455200195312 22.81806564331055 3 26.35369873046875 3 30 C 3 33.64630126953125 3.713455200195312 37.18193054199219 5.120567321777344 40.50869750976562 C 6.480300903320312 43.72348022460938 8.427509307861328 46.61127853393555 10.90811157226562 49.09188842773438 C 13.38872146606445 51.57248687744141 16.27652359008789 53.51969909667969 19.49129867553711 54.87943267822266 C 22.81806564331055 56.28654479980469 26.35369873046875 57 30 57 C 33.64630126953125 57 37.18193054199219 56.28654479980469 40.50869750976562 54.87943267822266 C 43.72348022460938 53.51969909667969 46.61127853393555 51.57248687744141 49.09188842773438 49.09188842773438 C 51.57248687744141 46.61127853393555 53.51969909667969 43.72348022460938 54.87943267822266 40.50869750976562 C 56.28654479980469 37.18193054199219 57 33.64630126953125 57 30 C 57 26.35369873046875 56.28654479980469 22.81806564331055 54.87943267822266 19.49129867553711 C 53.51969909667969 16.27652359008789 51.57248687744141 13.38872146606445 49.09188842773438 10.90811157226562 C 46.61127853393555 8.427509307861328 43.72348022460938 6.480300903320312 40.50869750976562 5.120567321777344 C 37.18193054199219 3.713455200195312 33.64630126953125 3 30 3 M 30 0 C 46.56854248046875 0 60 13.43145370483398 60 30 C 60 46.56854248046875 46.56854248046875 60 30 60 C 13.43145370483398 60 0 46.56854248046875 0 30 C 0 13.43145370483398 13.43145370483398 0 30 0 Z" stroke="none" fill="#ededed"/>
    </g>
    <g id="그룹_3699" data-name="그룹 3699" transform="translate(5.728 -0.001)">
      <g id="그룹_3697" data-name="그룹 3697" transform="translate(-19004 -24032.943) rotate(180)">
        <g id="그룹_550" data-name="그룹 550" transform="translate(0 0)" clip-path="url(#clip-path)">
          <path id="패스_96" data-name="패스 96" d="M12.853,24.116,1.061,12.323,12.853.53" transform="translate(0.411 0.206)" fill="none" stroke="#a5a5a5" stroke-miterlimit="10" stroke-width="3"/>
        </g>
      </g>
      <line id="선_215" data-name="선 215" x1="18" y2="18" transform="translate(-19019 -24058) rotate(45)" fill="none" stroke="#a5a5a5" stroke-width="3"/>
    </g>
  </g>
</svg>
