<svg xmlns="http://www.w3.org/2000/svg" width="40" height="40" viewBox="0 0 40 40">
  <g id="그룹_3145" data-name="그룹 3145" transform="translate(-745 -332)">
    <g id="사각형_185" data-name="사각형 185" transform="translate(745 332)" fill="none" stroke="#a5a5a5" stroke-width="1.4">
      <rect width="40" height="40" rx="10" stroke="none"/>
      <rect x="0.7" y="0.7" width="38.6" height="38.6" rx="9.3" fill="none"/>
    </g>
    <g id="그룹_1315" data-name="그룹 1315" transform="translate(506 -175)">
      <g id="사각형_182" data-name="사각형 182" transform="translate(250 526)" fill="none" stroke="#a5a5a5" stroke-width="1.4">
        <path d="M9,0H9a9,9,0,0,1,9,9v1a0,0,0,0,1,0,0H0a0,0,0,0,1,0,0V9A9,9,0,0,1,9,0Z" stroke="none"/>
        <path d="M9,.7H9A8.3,8.3,0,0,1,17.3,9v.3a0,0,0,0,1,0,0H.7a0,0,0,0,1,0,0V9A8.3,8.3,0,0,1,9,.7Z" fill="none"/>
      </g>
      <g id="패스_83" data-name="패스 83" transform="translate(254.5 518)" fill="none">
        <path d="M4.5,0A4.556,4.556,0,0,1,9,4.609,4.371,4.371,0,0,1,4.5,9,4.371,4.371,0,0,1,0,4.609,4.556,4.556,0,0,1,4.5,0Z" stroke="none"/>
        <path d="M 4.499999523162842 1.400000095367432 C 2.7906494140625 1.400000095367432 1.399999618530273 2.839620113372803 1.399999618530273 4.609149932861328 C 1.399999618530273 6.314209938049316 2.732709407806396 7.599999904632568 4.499999523162842 7.599999904632568 C 6.267289638519287 7.599999904632568 7.59999942779541 6.314209938049316 7.59999942779541 4.609149932861328 C 7.59999942779541 2.839620113372803 6.209349632263184 1.400000095367432 4.499999523162842 1.400000095367432 M 4.499999523162842 0 C 6.985279560089111 0 9 2.063590049743652 9 4.609149932861328 C 9 7.154719829559326 6.985279560089111 9 4.499999523162842 9 C 2.014719486236572 9 -9.5367431640625e-07 7.154719829559326 -9.5367431640625e-07 4.609149932861328 C -9.5367431640625e-07 2.063590049743652 2.014719486236572 0 4.499999523162842 0 Z" stroke="none" fill="#a5a5a5"/>
      </g>
    </g>
  </g>
</svg>
