<svg xmlns="http://www.w3.org/2000/svg" xmlns:xlink="http://www.w3.org/1999/xlink" width="86" height="13.293" viewBox="0 0 86 13.293">
  <defs>
    <clipPath id="clip-path">
      <rect width="86" height="13.293" fill="none"/>
    </clipPath>
  </defs>
  <g id="평점_별" data-name="평점 별" clip-path="url(#clip-path)">
    <g id="평점_별-2" data-name="평점 별" transform="translate(-136 -704)">
      <path id="다각형_11" data-name="다각형 11" d="M7,0,9.1,4.462l4.9.615L10.4,8.45l.928,4.843L7,10.915,2.674,13.293,3.6,8.45,0,5.077l4.9-.615Z" transform="translate(136 704)"/>
      <path id="다각형_12" data-name="다각형 12" d="M7,0,9.1,4.462l4.9.615L10.4,8.45l.928,4.843L7,10.915,2.674,13.293,3.6,8.45,0,5.077l4.9-.615Z" transform="translate(154 704)"/>
      <path id="다각형_13" data-name="다각형 13" d="M7,0,9.1,4.462l4.9.615L10.4,8.45l.928,4.843L7,10.915,2.674,13.293,3.6,8.45,0,5.077l4.9-.615Z" transform="translate(172 704)"/>
      <path id="패스_514" data-name="패스 514" d="M7,0,9.1,4.462l4.9.615L10.4,8.45l.928,4.843L7,10.915,2.674,13.293,3.6,8.45,0,5.077l4.9-.615Z" transform="translate(190 704)"/>
      <path id="다각형_15" data-name="다각형 15" d="M7,0,9.1,4.462l4.9.615L10.4,8.45l.928,4.843L7,10.915,2.674,13.293,3.6,8.45,0,5.077l4.9-.615Z" transform="translate(208 704)"/>
    </g>
  </g>
</svg>
