<svg xmlns="http://www.w3.org/2000/svg" width="64" height="53.848" viewBox="0 0 64 53.848">
  <g id="그룹_1412" data-name="그룹 1412" transform="translate(-1597.5 -309.576)">
    <g id="그룹_1379" data-name="그룹 1379" transform="translate(0 -6)">
      <g id="사각형_182" data-name="사각형 182" transform="translate(1597.5 333.424)" fill="none" stroke="#000" stroke-width="1.4">
        <path d="M10,0H26A10,10,0,0,1,36,10V30a0,0,0,0,1,0,0H0a0,0,0,0,1,0,0V10A10,10,0,0,1,10,0Z" stroke="none"/>
        <path d="M10,.7H26A9.3,9.3,0,0,1,35.3,10V29.3a0,0,0,0,1,0,0H.7a0,0,0,0,1,0,0V10A9.3,9.3,0,0,1,10,.7Z" fill="none"/>
      </g>
      <g id="패스_83" data-name="패스 83" transform="translate(1607.5 315.576)" fill="#fff">
        <path d="M 8 15.30000114440918 C 6.019410133361816 15.30000114440918 4.182340145111084 14.58560085296631 2.827189922332764 13.28840065002441 C 1.455450057983398 11.97532081604004 0.699999988079071 10.16611099243164 0.699999988079071 8.194050788879395 C 0.699999988079071 4.061820983886719 3.974770069122314 0.7000009417533875 8 0.7000009417533875 C 12.02523040771484 0.7000009417533875 15.30000019073486 4.061820983886719 15.30000019073486 8.194050788879395 C 15.30000019073486 10.16611099243164 14.5445499420166 11.97532081604004 13.17280960083008 13.28840065002441 C 11.81766033172607 14.58560085296631 9.980589866638184 15.30000114440918 8 15.30000114440918 Z" stroke="none"/>
        <path d="M 8 1.40000057220459 C 4.360750198364258 1.40000057220459 1.399999618530273 4.447800636291504 1.399999618530273 8.194050788879395 C 1.399999618530273 9.973331451416016 2.078760147094727 11.60296058654785 3.311229705810547 12.78273105621338 C 4.535470008850098 13.95461082458496 6.200639724731445 14.60000133514404 8 14.60000133514404 C 9.799360275268555 14.60000133514404 11.4645299911499 13.95461082458496 12.68877029418945 12.78273105621338 C 13.92123985290527 11.60296058654785 14.60000038146973 9.973331451416016 14.60000038146973 8.194050788879395 C 14.60000038146973 4.447800636291504 11.63924980163574 1.40000057220459 8 1.40000057220459 M 8 1.9073486328125e-06 C 12.41827964782715 1.9073486328125e-06 16 3.668601036071777 16 8.194050788879395 C 16 12.71950149536133 12.41827964782715 16 8 16 C 3.581720352172852 16 0 12.71950149536133 0 8.194050788879395 C 0 3.668601036071777 3.581720352172852 1.9073486328125e-06 8 1.9073486328125e-06 Z" stroke="none" fill="#000"/>
      </g>
    </g>
    <g id="그룹_1380" data-name="그룹 1380" transform="translate(28 4)">
      <g id="사각형_182-2" data-name="사각형 182" transform="translate(1597.5 333.424)" fill="none" stroke="#000" stroke-width="1.4">
        <path d="M10,0H26A10,10,0,0,1,36,10V26a0,0,0,0,1,0,0H0a0,0,0,0,1,0,0V10A10,10,0,0,1,10,0Z" stroke="none"/>
        <path d="M10,.7H26A9.3,9.3,0,0,1,35.3,10V25.3a0,0,0,0,1,0,0H.7a0,0,0,0,1,0,0V10A9.3,9.3,0,0,1,10,.7Z" fill="none"/>
      </g>
      <g id="패스_83-2" data-name="패스 83" transform="translate(1607.5 316.576)" fill="#fff">
        <path d="M 8 14.30000114440918 C 6.019410133361816 14.30000114440918 4.182340145111084 13.58560085296631 2.827189922332764 12.28840065002441 C 1.455450057983398 10.97532081604004 0.699999988079071 9.166110992431641 0.699999988079071 7.194050788879395 C 0.699999988079071 3.061820983886719 3.974770069122314 -0.2999990582466125 8 -0.2999990582466125 C 12.02523040771484 -0.2999990582466125 15.30000019073486 3.061820983886719 15.30000019073486 7.194050788879395 C 15.30000019073486 9.166110992431641 14.5445499420166 10.97532081604004 13.17280960083008 12.28840065002441 C 11.81766033172607 13.58560085296631 9.980589866638184 14.30000114440918 8 14.30000114440918 Z" stroke="none"/>
        <path d="M 8 0.4000005722045898 C 4.360750198364258 0.4000005722045898 1.399999618530273 3.447800636291504 1.399999618530273 7.194050788879395 C 1.399999618530273 8.973331451416016 2.078760147094727 10.60296058654785 3.311229705810547 11.78273105621338 C 4.535470008850098 12.95461082458496 6.200639724731445 13.60000133514404 8 13.60000133514404 C 9.799360275268555 13.60000133514404 11.4645299911499 12.95461082458496 12.68877029418945 11.78273105621338 C 13.92123985290527 10.60296058654785 14.60000038146973 8.973331451416016 14.60000038146973 7.194050788879395 C 14.60000038146973 3.447800636291504 11.63924980163574 0.4000005722045898 8 0.4000005722045898 M 8 -0.9999990463256836 C 12.41827964782715 -0.9999990463256836 16 2.668601036071777 16 7.194050788879395 C 16 11.71950149536133 12.41827964782715 15.00000095367432 8 15.00000095367432 C 3.581720352172852 15.00000095367432 0 11.71950149536133 0 7.194050788879395 C 0 2.668601036071777 3.581720352172852 -0.9999990463256836 8 -0.9999990463256836 Z" stroke="none" fill="#000"/>
      </g>
    </g>
  </g>
</svg>
