<svg id="그룹_3582" data-name="그룹 3582" xmlns="http://www.w3.org/2000/svg" xmlns:xlink="http://www.w3.org/1999/xlink" width="60" height="60" viewBox="0 0 60 60">
  <defs>
    <clipPath id="clip-path">
      <rect id="사각형_356" data-name="사각형 356" width="60" height="60" fill="none"/>
    </clipPath>
  </defs>
  <g id="그룹_3502" data-name="그룹 3502" clip-path="url(#clip-path)">
    <path id="사각형_354" data-name="사각형 354" d="M3.571,0H38.338a3.571,3.571,0,0,1,3.571,3.571V49.959a3.57,3.57,0,0,1-3.57,3.57H3.571A3.571,3.571,0,0,1,0,49.958V3.571A3.571,3.571,0,0,1,3.571,0Z" transform="translate(9.046 3.236)" fill="none" stroke="#1a1311" stroke-linecap="round" stroke-linejoin="round" stroke-width="1.5"/>
    <line id="선_153" data-name="선 153" x2="41.909" transform="translate(9.045 50.292)" fill="none" stroke="#1a1311" stroke-linecap="round" stroke-linejoin="round" stroke-width="1.5"/>
    <line id="선_154" data-name="선 154" x2="41.909" transform="translate(9.045 14.63)" fill="none" stroke="#1a1311" stroke-linecap="round" stroke-linejoin="round" stroke-width="1.5"/>
    <circle id="타원_36" data-name="타원 36" cx="6.061" cy="6.061" r="6.061" transform="translate(23.939 26.19)" fill="none" stroke="#1a1311" stroke-linecap="round" stroke-linejoin="round" stroke-width="1.5"/>
    <rect id="사각형_355" data-name="사각형 355" width="10.838" height="5.055" transform="translate(12.332 6.662)" fill="none" stroke="#1a1311" stroke-linecap="round" stroke-linejoin="round" stroke-width="1.5"/>
    <path id="패스_359" data-name="패스 359" d="M39.478,9.343a2.528,2.528,0,1,1-2.527-2.527A2.527,2.527,0,0,1,39.478,9.343Z" fill="none" stroke="#1a1311" stroke-linecap="round" stroke-linejoin="round" stroke-width="1.5"/>
    <path id="패스_360" data-name="패스 360" d="M47.668,9.343a2.528,2.528,0,1,1-2.527-2.527A2.527,2.527,0,0,1,47.668,9.343Z" fill="none" stroke="#1a1311" stroke-linecap="round" stroke-linejoin="round" stroke-width="1.5"/>
    <path id="패스_361" data-name="패스 361" d="M18.115,29.424a12.215,12.215,0,1,1,0,5.655" fill="none" stroke="#1a1311" stroke-linecap="round" stroke-linejoin="round" stroke-width="1.5"/>
    <line id="선_155" data-name="선 155" x2="47.2" y2="59" transform="translate(6.4 0.5)" fill="none" stroke="#b40019" stroke-miterlimit="10" stroke-width="1.5"/>
  </g>
</svg>
