<svg id="그룹_2560" data-name="그룹 2560" xmlns="http://www.w3.org/2000/svg" xmlns:xlink="http://www.w3.org/1999/xlink" width="80" height="50" viewBox="0 0 80 50">
  <defs>
    <clipPath id="clip-path">
      <rect id="사각형_199" data-name="사각형 199" width="80" height="50" fill="none" stroke="#000" stroke-width="1"/>
    </clipPath>
  </defs>
  <g id="그룹_2559" data-name="그룹 2559">
    <g id="그룹_2558" data-name="그룹 2558" clip-path="url(#clip-path)">
      <g id="패스_143" data-name="패스 143" fill="none">
        <path d="M.305,49.695V32.3a7.314,7.314,0,0,0,7-7.3,7.315,7.315,0,0,0-7-7.3V.3H79.7V17.7a7.3,7.3,0,0,0,0,14.6v17.4Z" stroke="none"/>
        <path d="M 78.69599914550781 48.69499969482422 L 78.69599914550781 33.20273971557617 C 74.70117950439453 32.57716369628906 71.69599914550781 29.14243698120117 71.69599914550781 25 C 71.69599914550781 20.85704803466797 74.70117950439453 17.42190170288086 78.69599914550781 16.79626846313477 L 78.69599914550781 1.30400025844574 L 1.304999709129333 1.30400025844574 L 1.304999709129333 16.79626846313477 C 5.299818515777588 17.42190170288086 8.304999351501465 20.85704803466797 8.304999351501465 25 C 8.304999351501465 29.14243698120117 5.299818515777588 32.57716369628906 1.304999709129333 33.20273971557617 L 1.304999709129333 48.69499969482422 L 78.69599914550781 48.69499969482422 M 79.69599914550781 49.69499969482422 L 0.3049997389316559 49.69499969482422 L 0.3049997389316559 32.29800033569336 C 4.191999912261963 32.13700103759766 7.304999828338623 28.92500114440918 7.304999828338623 25 C 7.304999828338623 21.07399940490723 4.191999912261963 17.86199951171875 0.3049997389316559 17.70100021362305 L 0.3049997389316559 0.3040002882480621 L 79.69599914550781 0.3040002882480621 L 79.69599914550781 17.70100021362305 C 75.80899810791016 17.86199951171875 72.69599914550781 21.07399940490723 72.69599914550781 25 C 72.69599914550781 28.92500114440918 75.80899810791016 32.13700103759766 79.69599914550781 32.29800033569336 L 79.69599914550781 49.69499969482422 Z" stroke="none" fill="#000"/>
      </g>
      <g id="패스_144" data-name="패스 144" fill="none">
        <path d="M79.391.609V17.415a7.609,7.609,0,0,0,0,15.17V49.391H.609V32.585a7.619,7.619,0,0,0,7-7.585,7.619,7.619,0,0,0-7-7.585V.609ZM80,0H0V18A7,7,0,0,1,0,32V50H80V32a7,7,0,0,1,0-14Z" stroke="none"/>
        <path d="M 0 0 L 80 0 L 80 18 C 76.13400268554688 18 73 21.13400077819824 73 25 C 73 28.86599922180176 76.13400268554688 32 80 32 L 80 50 L 0 50 L 0 32 C 3.865997314453125 32 7 28.86599922180176 7 25 C 7 21.13400077819824 3.865997314453125 18 0 18 L 0 0 Z M 79.39099884033203 49.39099884033203 L 79.39099884033203 32.58499908447266 C 75.47900390625 32.27400207519531 72.39099884033203 28.99099922180176 72.39099884033203 25 C 72.39099884033203 21.00900077819824 75.47900390625 17.72600173950195 79.39099884033203 17.41500091552734 L 79.39099884033203 0.6090011596679688 L 0.6090011596679688 0.6090011596679688 L 0.6090011596679688 17.41500091552734 C 4.521003723144531 17.72600173950195 7.609001159667969 21.00900077819824 7.609001159667969 25 C 7.609001159667969 28.99099922180176 4.521003723144531 32.27400207519531 0.6090011596679688 32.58499908447266 L 0.6090011596679688 49.39099884033203 L 79.39099884033203 49.39099884033203 Z" stroke="none" fill="#000"/>
      </g>
    </g>
  </g>
  <text id="_10_000" data-name="10,000" transform="translate(10 14)" font-size="14" font-family="NotoSansCJKkr-Medium, Noto Sans CJK KR" font-weight="500"><tspan x="-22.036" y="16">10,000</tspan></text>
</svg>
